<svg width="216" height="103" viewBox="0 0 216 103" fill="none" xmlns="http://www.w3.org/2000/svg">
<path d="M103 51.5C103 37.8414 97.5741 24.7421 87.916 15.084C78.2579 5.42588 65.1587 1.0312e-06 51.5 0C37.8414 -1.0312e-06 24.7421 5.42587 15.084 15.084C5.42588 24.7421 2.0624e-06 37.8413 0 51.5L51.5 51.5H103Z" fill="#1A4B4A"/>
<path d="M103 51.5C103 65.1586 97.5741 78.2579 87.916 87.916C78.2579 97.5741 65.1587 103 51.5 103C37.8414 103 24.7421 97.5741 15.084 87.916C5.42588 78.2579 2.0624e-06 65.1587 0 51.5L51.5 51.5H103Z" fill="#6FD784"/>
<circle cx="164.5" cy="51.5" r="51.5" fill="#1A4B4A"/>
</svg>
